# xmcd
#
# Track frame offsets:
#	150
#	17240
#	35776
#	52738
#	64782
#	82912
#	99665
#	120730
#	135549
#	151540
#	165967
#
# Disc length: 2387 seconds
#
# Revision: 0
# Processed by: cddbd v1.5.1PL0 Copyright (c) Steve Scherf et al.
# Submitted via: dBpowerAMP V4.0
#
DISCID=7c09510b
DTITLE=Jamie Hartford Band - Stuff That Works
DYEAR=2004
DGENRE=Country
TTITLE0=Who Am I To Change Your Mind
TTITLE1=Hopin'
TTITLE2=Stuff That Works
TTITLE3=Brand New Something Goin' On
TTITLE4=I'm Still Here
TTITLE5=Whole World
TTITLE6=Lucky One
TTITLE7=Can't Live Without Love
TTITLE8=Don't Think She's Comin' Back
TTITLE9=When You Gonna Come Around
TTITLE10=Pain
EXTD=
EXTT0=
EXTT1=
EXTT2=
EXTT3=
EXTT4=
EXTT5=
EXTT6=
EXTT7=
EXTT8=
EXTT9=
EXTT10=
PLAYORDER=
